<svg width="16" height="11" viewBox="0 0 16 11" fill="none" xmlns="http://www.w3.org/2000/svg">
<path d="M4.66667 10.1667H1.33333C1.09722 10.1667 0.899445 10.0867 0.74 9.92667C0.58 9.76723 0.5 9.56945 0.5 9.33334C0.5 9.09723 0.58 8.89945 0.74 8.74C0.899445 8.58 1.09722 8.5 1.33333 8.5H4.66667C4.90278 8.5 5.10083 8.58 5.26083 8.74C5.42028 8.89945 5.5 9.09723 5.5 9.33334C5.5 9.56945 5.42028 9.76723 5.26083 9.92667C5.10083 10.0867 4.90278 10.1667 4.66667 10.1667ZM14.6667 1.83334H1.33333C1.09722 1.83334 0.899445 1.75362 0.74 1.59417C0.58 1.43417 0.5 1.23612 0.5 1.00001C0.5 0.763894 0.58 0.565839 0.74 0.405839C0.899445 0.246394 1.09722 0.166672 1.33333 0.166672H14.6667C14.9028 0.166672 15.1006 0.246394 15.26 0.405839C15.42 0.565839 15.5 0.763894 15.5 1.00001C15.5 1.23612 15.42 1.43417 15.26 1.59417C15.1006 1.75362 14.9028 1.83334 14.6667 1.83334ZM9.66667 6H1.33333C1.09722 6 0.899445 5.92 0.74 5.76C0.58 5.60056 0.5 5.40278 0.5 5.16667C0.5 4.93056 0.58 4.7325 0.74 4.5725C0.899445 4.41306 1.09722 4.33334 1.33333 4.33334H9.66667C9.90278 4.33334 10.1008 4.41306 10.2608 4.5725C10.4203 4.7325 10.5 4.93056 10.5 5.16667C10.5 5.40278 10.4203 5.60056 10.2608 5.76C10.1008 5.92 9.90278 6 9.66667 6Z" fill="#007FAC"/>
</svg>
